<?xml version="1.0" encoding="utf-8"?>
<!-- Generator: Adobe Illustrator 19.1.1, SVG Export Plug-In . SVG Version: 6.00 Build 0)  -->
<svg version="1.1" id="Layer_1" xmlns="http://www.w3.org/2000/svg" xmlns:xlink="http://www.w3.org/1999/xlink" x="0px" y="0px"
	 viewBox="0 0 1200 1200" enable-background="new 0 0 1200 1200" xml:space="preserve">
<g>
	<g>
		<g>
			<path fill="#9AA1A7" d="M763.32,1005.118c-54.44,0-108.88,0-163.32,0c-54.44,0-108.88,0-163.32,0
				c23.406-32.929,37.235-66.688,42.021-98.454c4.786-31.766,0.53-61.539-12.232-86.498c44.51,0,89.021,0,133.531,0
				c44.51,0,89.021,0,133.531,0c-12.762,24.959-17.018,54.732-12.232,86.498S739.913,972.188,763.32,1005.118z"/>
			<path fill="#2E4C59" d="M763.317,1017.631h-163.32h-163.32c-2.341,0-4.585-0.654-6.511-1.827
				c-1.926-1.174-3.536-2.867-4.608-4.947s-1.521-4.372-1.362-6.622s0.925-4.457,2.281-6.364
				c21.271-29.924,34.601-60.961,39.555-90.5c4.954-29.538,1.532-57.578-10.704-81.508c-0.992-1.939-1.444-4.066-1.364-6.174
				c0.08-2.107,0.692-4.194,1.829-6.053c1.136-1.858,2.716-3.354,4.556-4.385c1.84-1.031,3.941-1.597,6.118-1.597H600h133.533
				c2.177,0,4.278,0.566,6.118,1.597c1.84,1.031,3.42,2.527,4.556,4.385c1.136,1.859,1.749,3.945,1.829,6.053
				c0.08,2.107-0.372,4.234-1.364,6.174c-12.238,23.931-15.662,51.971-10.709,81.51c4.953,29.539,18.284,60.575,39.555,90.498
				c1.356,1.907,2.122,4.114,2.281,6.364c0.159,2.25-0.29,4.543-1.362,6.622s-2.682,3.773-4.608,4.947
				C767.902,1016.977,765.658,1017.631,763.317,1017.631z M459.781,992.607h140.216h140.216
				c-16.354-27.401-26.817-55.45-31.152-82.615c-4.335-27.165-2.543-53.447,5.615-77.313H600H485.324
				c8.157,23.865,9.949,50.146,5.612,77.311C486.599,937.155,476.135,965.204,459.781,992.607z"/>
		</g>
		<g opacity="0.35">
			<path fill="#2E4C59" d="M480.191,892.27H600h119.809c-0.862-13.17-0.134-25.91,2.16-38s6.156-23.531,11.562-34.104H600H466.469
				c5.406,10.572,9.267,22.013,11.562,34.104C480.325,866.36,481.053,879.1,480.191,892.27z"/>
			<path fill="#2E4C59" d="M719.808,904.782H600H480.192c-1.73,0-3.421-0.358-4.976-1.032c-1.554-0.674-2.972-1.664-4.154-2.927
				c-1.183-1.262-2.078-2.742-2.65-4.338c-0.572-1.596-0.82-3.308-0.707-5.034c0.799-12.169,0.158-23.771-1.91-34.728
				c-2.067-10.957-5.561-21.27-10.465-30.861c-0.992-1.939-1.444-4.066-1.364-6.174c0.08-2.107,0.692-4.194,1.829-6.053
				c1.136-1.858,2.716-3.354,4.556-4.385c1.84-1.031,3.941-1.597,6.118-1.597H600h133.533c2.177,0,4.278,0.566,6.118,1.597
				c1.84,1.031,3.42,2.527,4.556,4.385c1.136,1.859,1.749,3.945,1.829,6.053c0.08,2.107-0.372,4.234-1.364,6.174
				c-4.905,9.591-8.398,19.903-10.465,30.861c-2.067,10.957-2.709,22.559-1.91,34.728c0.112,1.727-0.136,3.438-0.707,5.034
				c-0.572,1.596-1.467,3.075-2.65,4.338c-1.183,1.263-2.6,2.253-4.154,2.927C723.23,904.424,721.539,904.782,719.808,904.782z
				 M493.036,879.758H600h106.964c0.103-8.255,0.811-16.356,2.112-24.228c1.301-7.872,3.193-15.514,5.664-22.851H600H485.26
				c2.471,7.337,4.363,14.98,5.664,22.851C492.225,863.402,492.934,871.503,493.036,879.758z"/>
		</g>
		<g>
			<path fill="#2E4C59" d="M1085.396,829.945H600H114.604c-14.385,0-27.408-5.831-36.834-15.257
				c-9.427-9.427-15.257-22.45-15.257-36.834V499.727V221.601c0-14.385,5.831-27.408,15.257-36.834
				c9.427-9.427,22.45-15.257,36.834-15.257H600h485.396c14.385,0,27.408,5.831,36.834,15.257
				c9.427,9.427,15.257,22.45,15.257,36.834v278.126v278.126c0,14.385-5.831,27.408-15.257,36.834
				C1112.803,824.115,1099.78,829.945,1085.396,829.945z"/>
			<path fill="#2E4C59" d="M1101.34,842.456H600H98.66c-13.416,0-25.581-5.457-34.392-14.268S50,807.213,50,793.798V499.727V205.656
				c0-13.415,5.457-25.58,14.268-34.39c8.811-8.811,20.976-14.268,34.392-14.268H600h501.34c13.416,0,25.581,5.457,34.392,14.268
				c8.811,8.811,14.268,20.975,14.268,34.39v294.071v294.071c0,13.415-5.457,25.58-14.268,34.39S1114.756,842.456,1101.34,842.456z
				 M98.66,182.022c-6.516,0-12.425,2.65-16.705,6.93s-6.931,10.188-6.931,16.704v294.071v294.071
				c0,6.516,2.651,12.425,6.931,16.704c4.28,4.279,10.189,6.93,16.705,6.93H600h501.34c6.518,0,12.427-2.65,16.706-6.93
				c4.28-4.279,6.93-10.188,6.93-16.704V499.727V205.656c0-6.516-2.65-12.425-6.93-16.704s-10.189-6.93-16.706-6.93H600H98.66z"/>
		</g>
		<g>
			<path fill="#EAEEEF" d="M62.513,711.35v40.009v40.009c0,10.653,4.318,20.297,11.299,27.278
				c6.981,6.981,16.625,11.299,27.278,11.299H600h498.911c10.653,0,20.297-4.318,27.278-11.299
				c6.981-6.981,11.299-16.625,11.299-27.278v-40.009V711.35H600H62.513z"/>
			<path fill="#2E4C59" d="M1098.911,842.456H600H101.089c-14.086,0-26.858-5.729-36.109-14.98
				C55.729,818.226,50,805.454,50,791.369V751.36V711.35c0-3.455,1.4-6.583,3.664-8.848c2.264-2.264,5.392-3.664,8.848-3.664H600
				h537.488c3.455,0,6.583,1.4,8.848,3.664s3.664,5.392,3.664,8.848v40.009v40.009c0,14.085-5.729,26.856-14.98,36.107
				C1125.769,836.727,1112.996,842.456,1098.911,842.456z M75.024,723.863v33.753v33.753c0,7.186,2.923,13.702,7.643,18.421
				c4.72,4.719,11.236,7.642,18.422,7.642H600h498.911c7.187,0,13.703-2.923,18.423-7.642s7.642-11.235,7.642-18.421v-33.753
				v-33.753H600H75.024z"/>
		</g>
		<g>
			<path fill="#EAEEEF" d="M836.352,979.747H600H363.647c-6.467,0-12.321,2.621-16.559,6.859
				c-4.238,4.238-6.859,10.092-6.859,16.559v1.953v1.953c0,6.467,2.621,12.321,6.859,16.559c4.238,4.238,10.092,6.859,16.559,6.859
				H600h236.353c6.467,0,12.321-2.621,16.559-6.859c4.238-4.238,6.859-10.092,6.859-16.559v-1.953v-1.953
				c0-6.467-2.621-12.321-6.859-16.559C848.674,982.368,842.819,979.747,836.352,979.747z"/>
			<path fill="#2E4C59" d="M835.995,1043.002H599.998H364c-10.005,0-19.076-4.069-25.646-10.64
				c-6.57-6.57-10.639-15.642-10.639-25.645v-1.598v-1.598c0-10.004,4.069-19.075,10.639-25.645
				c6.57-6.57,15.641-10.64,25.646-10.64h235.997h235.997c10.005,0,19.076,4.07,25.646,10.64s10.639,15.642,10.639,25.645v1.598
				v1.598c0,10.004-4.069,19.075-10.639,25.645S846,1043.002,835.995,1043.002z M364,992.259c-3.104,0-5.919,1.263-7.958,3.302
				c-2.039,2.039-3.303,4.854-3.303,7.959v1.598v1.598c0,3.105,1.263,5.92,3.303,7.959c2.039,2.039,4.855,3.302,7.958,3.302h235.997
				h235.997c3.104,0,5.919-1.263,7.958-3.302c2.039-2.039,3.303-4.854,3.303-7.959v-1.598v-1.598c0-3.105-1.263-5.92-3.303-7.959
				c-2.039-2.039-4.855-3.302-7.958-3.302H599.998H364z"/>
		</g>
	</g>
	<path fill="#2E4C59" d="M645.371,783.161H600h-45.371c-3.456,0-6.584-1.4-8.848-3.664s-3.664-5.392-3.664-8.848
		c0-3.456,1.4-6.584,3.664-8.848s5.392-3.664,8.848-3.664H600h45.371c3.456,0,6.584,1.4,8.848,3.664s3.664,5.392,3.664,8.848
		c0,3.455-1.4,6.583-3.664,8.848S648.827,783.161,645.371,783.161z"/>
	<g>
		<g>
			<polygon fill="#ABE1ED" points="878.956,532.651 692.985,532.651 507.014,532.651 507.014,404.547 507.014,276.443 
				692.985,276.443 878.956,276.443 878.956,404.547 			"/>
			<path fill="#2E4C59" d="M878.956,545.164H692.985H507.015c-3.456,0-6.584-1.4-8.848-3.664c-2.264-2.264-3.664-5.392-3.664-8.848
				V404.547V276.442c0-3.455,1.4-6.583,3.664-8.848s5.392-3.664,8.848-3.664h185.971h185.971c3.456,0,6.583,1.4,8.848,3.664
				s3.664,5.392,3.664,8.848v128.105v128.105c0,3.456-1.4,6.584-3.664,8.848C885.54,543.764,882.412,545.164,878.956,545.164z
				 M519.527,520.14h173.459h173.459V404.547V288.954H692.985H519.527v115.593V520.14z"/>
		</g>
		<g>
			<polygon fill="#ABE1ED" points="692.985,616.226 507.014,616.226 321.044,616.226 321.044,488.122 321.044,360.018 
				507.014,360.018 692.985,360.018 692.985,488.122 			"/>
			<path fill="#2E4C59" d="M692.985,628.739H507.015H321.044c-3.456,0-6.584-1.4-8.848-3.664c-2.264-2.264-3.664-5.392-3.664-8.848
				V488.123V360.019c0-3.455,1.4-6.583,3.664-8.848s5.392-3.664,8.848-3.664h185.971h185.971c3.456,0,6.584,1.4,8.848,3.664
				c2.264,2.264,3.664,5.392,3.664,8.848v128.104v128.104c0,3.456-1.4,6.584-3.664,8.848
				C699.569,627.338,696.441,628.739,692.985,628.739z M333.556,603.715h173.459h173.459V488.123V372.531H507.015H333.556v115.592
				V603.715z"/>
		</g>
	</g>
</g>
</svg>
